<?xml version="1.0" encoding="UTF-8" standalone="no"?>
<svg
   xmlns:dc="http://purl.org/dc/elements/1.1/"
   xmlns:cc="http://creativecommons.org/ns#"
   xmlns:rdf="http://www.w3.org/1999/02/22-rdf-syntax-ns#"
   xmlns:svg="http://www.w3.org/2000/svg"
   xmlns="http://www.w3.org/2000/svg"
   xmlns:sodipodi="http://sodipodi.sourceforge.net/DTD/sodipodi-0.dtd"
   xmlns:inkscape="http://www.inkscape.org/namespaces/inkscape"
   width="371px"
   height="269px"
   viewBox="0 0 371 269"
   version="1.1"
   id="svg839"
   sodipodi:docname="godid.svg"
   inkscape:version="1.0.2 (e86c8708, 2021-01-15)">
  <metadata
     id="metadata845">
    <rdf:RDF>
      <cc:Work
         rdf:about="">
        <dc:format>image/svg+xml</dc:format>
        <dc:type
           rdf:resource="http://purl.org/dc/dcmitype/StillImage" />
      </cc:Work>
    </rdf:RDF>
  </metadata>
  <defs
     id="defs843" />
  <sodipodi:namedview
     pagecolor="#ffffff"
     bordercolor="#666666"
     borderopacity="1"
     objecttolerance="10"
     gridtolerance="10"
     guidetolerance="10"
     inkscape:pageopacity="0"
     inkscape:pageshadow="2"
     inkscape:window-width="1120"
     inkscape:window-height="688"
     id="namedview841"
     showgrid="false"
     inkscape:zoom="1.3608081"
     inkscape:cx="185.5"
     inkscape:cy="134.5"
     inkscape:window-x="0"
     inkscape:window-y="37"
     inkscape:window-maximized="0"
     inkscape:current-layer="Page-1" />
  <g
     id="Page-1"
     stroke="none"
     stroke-width="1"
     fill="none"
     fill-rule="evenodd">
    <g
       id="GODID_画板-1(2)"
       transform="translate(-499.000000, -47.000000)"
       fill="#2B6CB0"
       fill-rule="nonzero"
       style="fill:#3e94ee;fill-opacity:1">
      <path
         d="M851.5,47.4679948 L517.42,47.4679948 C507.76396,47.3253066 499.817997,55.0340104 499.67,64.69 L499.67,225.45 C499.817997,235.10599 507.76396,242.814693 517.42,242.67 L617.91,242.67 C627.72,242.67 635.67,250.37 635.67,259.88 L635.67,263.67 C635.67,273.18 627.72,280.88 617.91,280.88 L517.42,280.88 C507.76396,280.735307 499.817997,288.44401 499.67,298.1 L499.67,298.1 C499.741058,302.736162 501.651198,307.154146 504.980091,310.381766 C508.308983,313.609385 512.783855,315.382164 517.42,315.31212 L653.42,315.31212 C663.23,315.31212 671.18,307.61 671.18,298.1 L671.18,259.88 C671.18,250.37 679.18,242.67 688.94,242.67 L851.5,242.67 C861.157718,242.814721 869.106543,235.107583 869.26,225.45 L869.26,64.69 C869.106543,55.0324169 861.157718,47.3252787 851.5,47.4679948 Z M535.18,208.24 L535.18,81.9 C583.54,79.68 636.28,79.68 635.67,144.24 C636.56,208 584.41,211 535.18,208.24 Z M697.74,208.24 L671.18,208.24 L671.18,108.56 L697.74,108.56 L697.74,208.24 Z M733.26,208.24 L733.26,81.9 C781.62,79.66 834.36,79.71 833.74,144.23 C834.63,208 782.49,211 733.26,208.24 Z"
         id="Shape"
         style="fill:#3e94ee;fill-opacity:1" />
      <path
         d="M561.3,101.67 L561.3,187.75 C588.97,189.66 609.3,179.17 608.92,144.23 C609.38,109.26 588.82,99.91 561.3,101.67 Z"
         id="Path"
         style="fill:#3e94ee;fill-opacity:1" />
      <path
         d="M759.37,101.67 L759.37,187.75 L767.37,187.75 C791.93,187.75 806.99,175.09 806.99,144.23 C807.45,109.26 786.9,99.91 759.37,101.67 Z"
         id="path835"
         style="fill:#3e94ee;fill-opacity:1" />
    </g>
  </g>
</svg>
